<?xml version="1.0" encoding="UTF-8"?>
<svg version="1.1" xmlns="http://www.w3.org/2000/svg" width="290" height="290">
<path d="M0 0 C0.8643869 -0.01022186 1.7287738 -0.02044373 2.61935425 -0.03097534 C5.46022693 -0.05864291 8.30012236 -0.05686367 11.14111328 -0.05224609 C13.12737382 -0.06002719 15.11363106 -0.06869801 17.09988403 -0.07821655 C21.25745442 -0.09311433 25.41468507 -0.09257837 29.57226562 -0.08203125 C34.88415269 -0.07044789 40.19464362 -0.10429858 45.50629997 -0.1507206 C49.60718838 -0.18027373 53.70774359 -0.1819282 57.80871964 -0.17570114 C59.76623422 -0.17672375 61.72376839 -0.18712759 63.68117905 -0.20732498 C82.04869111 -0.37359465 82.04869111 -0.37359465 88.44143677 4.57876587 C93.76669812 10.95795535 94.67588644 15.67648326 94.63232422 23.79907227 C94.6426619 24.80471222 94.65299957 25.81035217 94.66365051 26.84646606 C94.69302071 30.15252866 94.69457651 33.45797749 94.69580078 36.76416016 C94.71078627 39.0634528 94.72751419 41.36273468 94.74591064 43.66200256 C94.78955455 49.70029197 94.80957689 55.73843616 94.824646 61.77685547 C94.84422757 67.94393489 94.8861965 74.11085774 94.92626953 80.27783203 C95.00153978 92.3682785 95.05185071 104.45868986 95.08642578 116.54931641 C95.63162872 116.54043396 96.17683167 116.53155151 96.73855591 116.5223999 C102.48249683 116.43297623 108.22623584 116.37319442 113.97070312 116.32958984 C116.10620168 116.30964093 118.2416468 116.28247182 120.37695312 116.24755859 C142.41098677 115.89666532 158.80784579 119.58818007 176.41455078 133.65087891 C181.44468653 137.66214698 186.66116322 141.42145419 191.8527832 145.21948242 C195.7333174 148.06381455 199.59534177 150.92409105 203.40283203 153.86572266 C217.64158284 164.85246535 231.65222223 173.10208632 250.02392578 173.92431641 C255.74957154 174.30372667 260.0217692 176.5088063 264.08642578 180.54931641 C267.819254 186.02708681 268.67623518 189.90648334 268.63574219 196.46289062 C268.64596405 197.32727753 268.65618591 198.19166443 268.66671753 199.08224487 C268.69438509 201.92311756 268.69260586 204.76301298 268.68798828 207.60400391 C268.69576937 209.59026445 268.70444019 211.57652168 268.71395874 213.56277466 C268.72885652 217.72034505 268.72832055 221.8775757 268.71777344 226.03515625 C268.70619007 231.34704332 268.74004076 236.65753425 268.78646278 241.9691906 C268.81601592 246.070079 268.81767038 250.17063422 268.81144333 254.27161026 C268.81246594 256.22912485 268.82286977 258.18665902 268.84306717 260.14406967 C269.00933684 278.51158173 269.00933684 278.51158173 264.05697632 284.90432739 C258.13581531 289.84723275 253.71027424 291.14518464 246.17285156 291.09863281 C245.30846466 291.10885468 244.44407776 291.11907654 243.55349731 291.12960815 C240.71262463 291.15727572 237.8727292 291.15549649 235.03173828 291.15087891 C233.04547774 291.15866 231.0592205 291.16733082 229.07296753 291.17684937 C224.91539714 291.19174714 220.75816649 291.19121118 216.60058594 291.18066406 C211.28869887 291.1690807 205.97820794 291.20293139 200.66655159 291.24935341 C196.56566319 291.27890655 192.46510797 291.28056101 188.36413193 291.27433395 C186.40661734 291.27535657 184.44908317 291.2857604 182.49167252 291.30595779 C164.12416045 291.47222746 164.12416045 291.47222746 157.73141479 286.51986694 C153.23108459 281.1288716 151.58954549 277.12911898 151.54052734 270.09887695 C151.53018967 269.38859344 151.51985199 268.67830994 151.50920105 267.94650269 C151.47984662 265.60944563 151.47827274 263.27326218 151.47705078 260.93603516 C151.46202415 259.28195108 151.44528785 257.62788176 151.42694092 255.97383118 C151.3832859 251.61251177 151.36330799 247.25139169 151.34820557 242.88989258 C151.32892612 238.54772255 151.2866401 234.20578842 151.24658203 229.86376953 C151.08601718 211.42607011 151.04479018 192.98764251 151.08642578 174.54931641 C150.54122284 174.55819885 149.9960199 174.5670813 149.43429565 174.57623291 C143.69035474 174.66565659 137.94661572 174.72543839 132.20214844 174.76904297 C130.06664989 174.78899188 127.93120476 174.81616099 125.79589844 174.85107422 C103.77295945 175.20179081 87.37160393 171.51848727 69.77392578 157.45947266 C65.44922237 154.01052169 60.98651074 150.75412088 56.52392578 147.48681641 C51.17924459 143.56864593 45.85745854 139.62849416 40.58642578 135.61181641 C29.00830431 126.93628806 17.2553199 119.66620582 2.57080078 118.19775391 C-5.38467245 117.38952854 -12.19081311 116.5649267 -17.91357422 110.54931641 C-21.63797121 105.06476032 -22.50340145 101.19503794 -22.46289062 94.63574219 C-22.47311249 93.77135529 -22.48333435 92.90696838 -22.49386597 92.01638794 C-22.52153353 89.17551526 -22.5197543 86.33561983 -22.51513672 83.49462891 C-22.52291781 81.50836837 -22.53158863 79.52211113 -22.54110718 77.53585815 C-22.55600496 73.37828776 -22.55546899 69.22105711 -22.54492188 65.06347656 C-22.53333851 59.75158949 -22.5671892 54.44109857 -22.61361122 49.12944221 C-22.64316436 45.02855381 -22.64481882 40.92799859 -22.63859177 36.82702255 C-22.63961438 34.86950797 -22.65001821 32.91197379 -22.67021561 30.95456314 C-22.83648527 12.58705108 -22.83648527 12.58705108 -17.88412476 6.19430542 C-11.96296374 1.25140006 -7.53742267 -0.04655183 0 0 Z " fill="#FFFFFF" transform="translate(21.91357421875,-0.54931640625)"/>
<path d="M0 0 C0.8643869 -0.01022186 1.7287738 -0.02044373 2.61935425 -0.03097534 C5.46022693 -0.05864291 8.30012236 -0.05686367 11.14111328 -0.05224609 C13.12737382 -0.06002719 15.11363106 -0.06869801 17.09988403 -0.07821655 C21.25745442 -0.09311433 25.41468507 -0.09257837 29.57226562 -0.08203125 C34.88415269 -0.07044789 40.19464362 -0.10429858 45.50629997 -0.1507206 C49.60718838 -0.18027373 53.70774359 -0.1819282 57.80871964 -0.17570114 C59.76623422 -0.17672375 61.72376839 -0.18712759 63.68117905 -0.20732498 C82.04869111 -0.37359465 82.04869111 -0.37359465 88.44143677 4.57876587 C93.38434213 10.49992688 94.68229402 14.92546795 94.63574219 22.46289062 C94.64596405 23.32727753 94.65618591 24.19166443 94.66671753 25.08224487 C94.69438509 27.92311756 94.69260586 30.76301298 94.68798828 33.60400391 C94.69576937 35.59026445 94.70444019 37.57652168 94.71395874 39.56277466 C94.72885652 43.72034505 94.72832055 47.8775757 94.71777344 52.03515625 C94.70619007 57.34704332 94.74004076 62.65753425 94.78646278 67.9691906 C94.81601592 72.070079 94.81767038 76.17063422 94.81144333 80.27161026 C94.81246594 82.22912485 94.82286977 84.18665902 94.84306717 86.14406967 C95.00933684 104.51158173 95.00933684 104.51158173 90.05697632 110.90432739 C84.13581531 115.84723275 79.71027424 117.14518464 72.17285156 117.09863281 C71.30846466 117.10885468 70.44407776 117.11907654 69.55349731 117.12960815 C66.71262463 117.15727572 63.8727292 117.15549649 61.03173828 117.15087891 C59.04547774 117.15866 57.0592205 117.16733082 55.07296753 117.17684937 C50.91539714 117.19174714 46.75816649 117.19121118 42.60058594 117.18066406 C37.28869887 117.1690807 31.97820794 117.20293139 26.66655159 117.24935341 C22.56566319 117.27890655 18.46510797 117.28056101 14.36413193 117.27433395 C12.40661734 117.27535657 10.44908317 117.2857604 8.49167252 117.30595779 C-9.87583955 117.47222746 -9.87583955 117.47222746 -16.26858521 112.51986694 C-21.21149056 106.59870593 -22.50944246 102.17316486 -22.46289062 94.63574219 C-22.47311249 93.77135529 -22.48333435 92.90696838 -22.49386597 92.01638794 C-22.52153353 89.17551526 -22.5197543 86.33561983 -22.51513672 83.49462891 C-22.52291781 81.50836837 -22.53158863 79.52211113 -22.54110718 77.53585815 C-22.55600496 73.37828776 -22.55546899 69.22105711 -22.54492188 65.06347656 C-22.53333851 59.75158949 -22.5671892 54.44109857 -22.61361122 49.12944221 C-22.64316436 45.02855381 -22.64481882 40.92799859 -22.63859177 36.82702255 C-22.63961438 34.86950797 -22.65001821 32.91197379 -22.67021561 30.95456314 C-22.83648527 12.58705108 -22.83648527 12.58705108 -17.88412476 6.19430542 C-11.96296374 1.25140006 -7.53742267 -0.04655183 0 0 Z " fill="#FFFFFF" transform="translate(21.91357421875,173.45068359375)"/>
<path d="M0 0 C0.8643869 -0.01022186 1.7287738 -0.02044373 2.61935425 -0.03097534 C5.46022693 -0.05864291 8.30012236 -0.05686367 11.14111328 -0.05224609 C13.12737382 -0.06002719 15.11363106 -0.06869801 17.09988403 -0.07821655 C21.25745442 -0.09311433 25.41468507 -0.09257837 29.57226562 -0.08203125 C34.88415269 -0.07044789 40.19464362 -0.10429858 45.50629997 -0.1507206 C49.60718838 -0.18027373 53.70774359 -0.1819282 57.80871964 -0.17570114 C59.76623422 -0.17672375 61.72376839 -0.18712759 63.68117905 -0.20732498 C82.04869111 -0.37359465 82.04869111 -0.37359465 88.44143677 4.57876587 C93.38434213 10.49992688 94.68229402 14.92546795 94.63574219 22.46289062 C94.64596405 23.32727753 94.65618591 24.19166443 94.66671753 25.08224487 C94.69438509 27.92311756 94.69260586 30.76301298 94.68798828 33.60400391 C94.69576937 35.59026445 94.70444019 37.57652168 94.71395874 39.56277466 C94.72885652 43.72034505 94.72832055 47.8775757 94.71777344 52.03515625 C94.70619007 57.34704332 94.74004076 62.65753425 94.78646278 67.9691906 C94.81601592 72.070079 94.81767038 76.17063422 94.81144333 80.27161026 C94.81246594 82.22912485 94.82286977 84.18665902 94.84306717 86.14406967 C95.00933684 104.51158173 95.00933684 104.51158173 90.05697632 110.90432739 C84.13581531 115.84723275 79.71027424 117.14518464 72.17285156 117.09863281 C71.30846466 117.10885468 70.44407776 117.11907654 69.55349731 117.12960815 C66.71262463 117.15727572 63.8727292 117.15549649 61.03173828 117.15087891 C59.04547774 117.15866 57.0592205 117.16733082 55.07296753 117.17684937 C50.91539714 117.19174714 46.75816649 117.19121118 42.60058594 117.18066406 C37.28869887 117.1690807 31.97820794 117.20293139 26.66655159 117.24935341 C22.56566319 117.27890655 18.46510797 117.28056101 14.36413193 117.27433395 C12.40661734 117.27535657 10.44908317 117.2857604 8.49167252 117.30595779 C-9.87583955 117.47222746 -9.87583955 117.47222746 -16.26858521 112.51986694 C-21.21149056 106.59870593 -22.50944246 102.17316486 -22.46289062 94.63574219 C-22.47311249 93.77135529 -22.48333435 92.90696838 -22.49386597 92.01638794 C-22.52153353 89.17551526 -22.5197543 86.33561983 -22.51513672 83.49462891 C-22.52291781 81.50836837 -22.53158863 79.52211113 -22.54110718 77.53585815 C-22.55600496 73.37828776 -22.55546899 69.22105711 -22.54492188 65.06347656 C-22.53333851 59.75158949 -22.5671892 54.44109857 -22.61361122 49.12944221 C-22.64316436 45.02855381 -22.64481882 40.92799859 -22.63859177 36.82702255 C-22.63961438 34.86950797 -22.65001821 32.91197379 -22.67021561 30.95456314 C-22.83648527 12.58705108 -22.83648527 12.58705108 -17.88412476 6.19430542 C-11.96296374 1.25140006 -7.53742267 -0.04655183 0 0 Z " fill="#FFFFFF" transform="translate(195.91357421875,-0.54931640625)"/>
</svg>
